
        <svg xmlns="http://www.w3.org/2000/svg" xmlns:xlink="http://www.w3.org/1999/xlink" version="1.1" width="3133.3333333333335" height="1093.3333333333333" viewBox="0 0 3133.3333333333335 1093.3333333333333">
			
			<g transform="scale(6.666666666666667) translate(10, 10)">
				<defs id="SvgjsDefs1657"/><g id="SvgjsG1658" featureKey="symbolContainer" transform="matrix(0.7181758491234574,0,0,0.7181758491234574,306,0)" fill="#000"><path xmlns="http://www.w3.org/2000/svg" d="M100.254 0C44.974 0 0 44.974 0 100.254s44.974 100.254 100.254 100.254c55.28 0 100.254-44.974 100.254-100.254S155.534 0 100.254 0zm0 195.508C47.731 195.508 5 152.777 5 100.254S47.731 5 100.254 5s95.254 42.73 95.254 95.254-42.731 95.254-95.254 95.254z"/></g><g id="SvgjsG1659" featureKey="monogramFeature-0" transform="matrix(1.3484805089723797,0,0,1.3484805089723797,339.2473473026487,14.238872176341886)" fill="#000"><path d="M45.777 25.778 l7.0427 0 l0 33.75 l-40.769 -21.294 l0 21.767 l-7.0431 0 l0 -33.75 l40.769 21.294 l0 -21.767 z"/></g><g id="SvgjsG1660" featureKey="nameFeature-0" transform="matrix(1.212980992236362,0,0,1.212980992236362,-4.049899145244243,23.41088958526339)" fill="#000"><path d="M30.518 17.185 l4.6952 0 l0 22.5 l-27.179 -14.196 l0 14.511 l-4.6954 0 l0 -22.5 l27.18 14.196 l0 -14.511 z M73.774 16.974 l0.083516 11.4 c0.034258 2.5224 -0.98356 4.9712 -2.8664 6.896 c-1.9964 2.0406 -5.8816 4.484 -13.054 4.5368 c-0.069572 0.0005078 -0.13941 0.00078124 -0.20848 0.00078124 c-5.4292 0 -9.9632 -1.5595 -12.785 -4.402 c-1.9399 -1.954 -2.9907 -4.4436 -2.9611 -7.0128 l-0.083984 -11.384 l4.6952 -0.034805 l0.084492 11.433 l-0.00027344 0.025625 c-0.019375 1.3246 0.53336 2.5915 1.598 3.664 c1.9603 1.9747 5.3772 3.043 9.6272 3.014 c4.3352 -0.031914 7.7912 -1.1416 9.732 -3.1251 c1.0183 -1.0408 1.5467 -2.2692 1.5279 -3.553 l0 -0.016758 l-0.08422 -11.407 z M112.072 35.238 l0.069492 4.6488 l-2.3241 0.034805 c-0.36098 0.005508 -0.76928 0.011797 -1.2148 0.011797 c-3.2182 0 -8.3796 -0.31965 -11.644 -3.536 c-1.5507 -1.5276 -2.4884 -3.4984 -2.8028 -5.8728 c-1.7086 0.24875 -3.5884 0.38398 -5.6452 0.38398 l-3.2821 0 l0 8.9704 l-4.6491 0 l0 -22.59 l4.6491 0 l0 8.9707 l3.2821 0 c9.5164 0 14.496 -3.2504 14.496 -6.4616 l0 -2.3247 l4.6491 0 l0 2.3244 c0 3.8217 -2.8274 7.6668 -8.938 9.6784 c0.12426 1.5509 0.61892 2.7377 1.5041 3.6098 c2.3304 2.2956 7.1908 2.2229 9.5268 2.1878 z M148.734 16.974 l0.083516 11.4 c0.034258 2.5224 -0.98356 4.9712 -2.8664 6.896 c-1.9964 2.0406 -5.8816 4.484 -13.054 4.5368 c-0.069572 0.0005078 -0.13941 0.00078124 -0.20848 0.00078124 c-5.4292 0 -9.9632 -1.5595 -12.785 -4.402 c-1.9399 -1.954 -2.9907 -4.4436 -2.9611 -7.0128 l-0.083984 -11.384 l4.6952 -0.034805 l0.084492 11.433 l-0.00027344 0.025625 c-0.019375 1.3246 0.53336 2.5915 1.598 3.664 c1.9603 1.9747 5.3772 3.043 9.6272 3.014 c4.3352 -0.031914 7.7912 -1.1416 9.732 -3.1251 c1.0183 -1.0408 1.5467 -2.2692 1.5279 -3.553 l0 -0.016758 l-0.08422 -11.407 z M198 17.485 l5.8113 0 l-18.034 24.047 l-7.0424 -9.3888 l-7.0412 9.3888 l-18.036 -24.047 l5.8116 0 l12.224 16.298 l4.1356 -5.5148 l-8.088 -10.784 l5.8116 0 l5.1824 6.9096 l5.1816 -6.9096 l5.811 0 l-8.0872 10.784 l4.1364 5.5148 z M236.92900000000003 19.299 c1.8355 1.8198 1.8204 4.452 1.7971 8.4364 c-0.0018359 0.29664 -0.0033984 0.604 -0.0046876 0.92236 c-0.0089064 2.3647 -0.015195 4.0732 -0.26344 5.514 c-0.21137 1.2284 -0.69948 2.9991 -2.4872 4.1908 c-2.2642 1.5093 -5.6464 1.5434 -13.056 1.6174 c-1.1572 0.011524 -2.2245 0.020156 -3.2091 0.020156 c-5.8708 0 -8.822 -0.31074 -10.708 -2.1844 c-1.964 -1.9514 -1.953 -4.8252 -1.9368 -9.1752 c0.018047 -4.8536 0.029024 -7.7832 2.4894 -9.602 c2.1227 -1.569 5.2056 -1.6103 11.96 -1.7011 l1.3479 -0.018555 c8.4176 -0.12031 11.902 -0.17027 14.071 1.9805 z M234.06300000000002 27.708 c0.013086 -2.2896 0.026914 -4.6576 -0.41728 -5.0976 c-0.55112 -0.54644 -3.0246 -0.67276 -6.3168 -0.67276 c-1.3547 0 -2.8484 0.021445 -4.4036 0.043672 l-1.3521 0.018555 c-4.8388 0.064884 -8.3348 0.11195 -9.25 0.78812 c-0.5776 0.42692 -0.587 2.9488 -0.59796 5.8692 c-0.010195 2.7118 -0.019883 5.2732 0.56032 5.8496 c0.9108 0.90508 5.8276 0.85564 10.583 0.80856 c5.4604 -0.054412 9.4056 -0.093908 10.516 -0.8342 c0.65372 -0.4358 0.66208 -2.7032 0.67384 -5.8416 c0.0010547 -0.32148 0.0028906 -0.632 0.0047264 -0.93176 z"/></g><g id="SvgjsG1661" featureKey="sloganFeature-0" transform="matrix(0.6199831440325823,0,0,0.6199831440325823,137.96551942963123,88.7643010727868)" fill="#000"><path d="M4.458 11.0046 c-0.21816 0.12059 -0.44118 0.32306 -0.44118 0.90966 c0 0.45724 0.14779 0.70718 0.52734 0.89108 c0.38386 0.18598 0.81196 0.19957 0.83354 0.2001 l8.5334 0.03336 c1.4828 0 3.6956 0.9158 3.6956 3.4388 s-2.0564 3.4388 -3.4388 3.4388 l-12.499 0 l0 -2.3477 l12.488 0 c0.1024 -0.0035352 0.40818 -0.04211 0.66022 -0.18152 c0.21828 -0.12072 0.44128 -0.32318 0.44128 -0.90964 c0 -0.45724 -0.14779 -0.70718 -0.52734 -0.89108 c-0.3827 -0.18547 -0.81038 -0.19947 -0.8343 -0.20012 l-8.5278 -0.03793 l0 0.0045703 c-1.4875 0 -3.7004 -0.9158 -3.7004 -3.4388 s2.0564 -3.4388 3.4388 -3.4388 l12.499 0 l0 2.3477 l-12.488 0 c-0.10229 0.0035352 -0.40834 0.04211 -0.6605 0.18152 z M42.172 8.445 l0.016758 1.1737 c0.01832 1.2629 -0.49072 2.489 -1.4333 3.4524 c-0.88466 0.90428 -2.5122 1.966 -5.367 2.2142 l-0.036758 4.6262 l-2.3476 -0.016094 l0.036484 -4.5994 c-2.2324 -0.18141 -4.09 -0.92992 -5.3086 -2.1572 c-0.97334 -0.9804 -1.4991 -2.2306 -1.4804 -3.5202 l0.017129 -1.1737 l2.3474 0.03414 l-0.017012 1.1737 c-0.0095508 0.66232 0.26668 1.2959 0.79912 1.832 c0.98028 0.98734 2.6908 1.5237 4.8134 1.507 c2.1676 -0.01582 3.8956 -0.57064 4.8658 -1.5624 c0.50916 -0.5203 0.77322 -1.1346 0.76394 -1.7765 l-0.017012 -1.1737 z M53.641999999999996 11.0046 c-0.21816 0.12059 -0.44118 0.32306 -0.44118 0.90966 c0 0.45724 0.14779 0.70718 0.52734 0.89108 c0.38386 0.18598 0.81196 0.19957 0.83354 0.2001 l8.5334 0.03336 c1.4828 0 3.6956 0.9158 3.6956 3.4388 s-2.0564 3.4388 -3.4388 3.4388 l-12.499 0 l0 -2.3477 l12.488 0 c0.1024 -0.0035352 0.40818 -0.04211 0.66022 -0.18152 c0.21828 -0.12072 0.44128 -0.32318 0.44128 -0.90964 c0 -0.45724 -0.14779 -0.70718 -0.52734 -0.89108 c-0.3827 -0.18547 -0.81038 -0.19947 -0.8343 -0.20012 l-8.5278 -0.03793 l0 0.0045703 c-1.4875 0 -3.7004 -0.9158 -3.7004 -3.4388 s2.0564 -3.4388 3.4388 -3.4388 l12.499 0 l0 2.3477 l-12.488 0 c-0.10229 0.0035352 -0.40834 0.04211 -0.6605 0.18152 z M75.4352 8.475 l15.938 0 l0 2.3477 l-6.7954 0 l0 9.0932 l-2.3476 0 l0 -9.0932 l-6.7946 0 l0 -2.3477 z M115.975 10.9512 l-13.59 0.000019531 l0 2.1863 l9.0642 0.03375 l-0.0086328 2.3478 l-9.0556 -0.03375 l0 2.1782 l13.59 0 l0 2.3477 l-15.938 0 l0 -11.407 l15.938 0 l0 2.3476 z M132.588 14.0628 l7.9688 -5.3126 l0 11.25 l-2.3477 0 l0 -6.8631 l-5.621 3.7472 l-5.621 -3.7472 l0 6.8631 l-2.3477 0 l0 -11.25 z M165.7078 20.02461 l-2.3246 0 l0 -11.295 l2.3246 0 l0 11.295 z M187.95499999999998 8.593 l2.3476 0 l0 11.25 l-13.59 -7.098 l0 7.2556 l-2.3477 0 l0 -11.25 l13.59 7.098 l0 -7.2556 z M214.885 10.9648 l-13.59 0 l0 2.1824 l9.0599 0 l0 2.3476 l-9.0599 0 l0 4.5299 l-2.3477 0 l0 -11.407 l15.938 0 l0 2.3476 z M238.46499999999997 9.649 c0.91776 0.9099 0.9102 2.226 0.89856 4.2182 c-0.00091796 0.14832 -0.0016992 0.302 -0.0023438 0.46118 c-0.0044532 1.1823 -0.0075976 2.0366 -0.13172 2.757 c-0.10568 0.6142 -0.34974 1.4995 -1.2436 2.0954 c-1.1321 0.75466 -2.8232 0.77168 -6.5282 0.8087 c-0.57862 0.0057618 -1.1122 0.010078 -1.6046 0.010078 c-2.9354 0 -4.411 -0.15537 -5.3538 -1.0922 c-0.98198 -0.9757 -0.97648 -2.4126 -0.96838 -4.5876 c0.0090234 -2.4268 0.014512 -3.8916 1.2447 -4.801 c1.0614 -0.7845 2.6028 -0.80516 5.9798 -0.85054 l0.67396 -0.0092774 c4.2088 -0.060156 5.9508 -0.085136 7.0354 0.99024 z M237.03099999999998 13.854199999999999 c0.006543 -1.1448 0.013457 -2.3288 -0.20864 -2.5488 c-0.27556 -0.27322 -1.5123 -0.33638 -3.1584 -0.33638 c-0.67736 0 -1.4242 0.010723 -2.2018 0.021836 l-0.67606 0.0092774 c-2.4194 0.032442 -4.1674 0.055976 -4.625 0.39406 c-0.2888 0.21346 -0.2935 1.4744 -0.29898 2.9346 c-0.0050976 1.3559 -0.0099414 2.6366 0.28016 2.9248 c0.4554 0.45254 2.9138 0.42782 5.2914 0.40428 c2.7302 -0.027206 4.7028 -0.046954 5.258 -0.4171 c0.32686 -0.2179 0.33104 -1.3516 0.33692 -2.9208 c0.00052734 -0.16074 0.0014453 -0.316 0.0023632 -0.46588 z"/></g>
			</g>
		</svg>
	